<svg xmlns="http://www.w3.org/2000/svg" width="640" height="400" viewBox="0 0 640 400" font-family="&#x27;Source Serif 4&#x27;, &#x27;Source Serif Pro&#x27;, Georgia, &#x27;Times New Roman&#x27;, serif" role="img">
<desc>Energy output by source</desc>
<defs><clipPath id="lv3f26158bc1"><rect x="71.08" y="19" width="507.01" height="306"/></clipPath></defs>
<rect width="100%" height="100%" fill="#ffffff"/>
<text x="16" y="384" font-size="12.5" fill="#4b5260" xml:space="preserve"><tspan font-weight="700" fill="#1e2229">Figure 1.</tspan><tspan> Energy output by source. Monthly, GWh.</tspan></text>
<g clip-path="url(#lv3f26158bc1)">
<path d="M72.08,268.27L118.95,235.33L161.29,177.07L208.16,131.47L253.52,75.73L300.39,42.8L345.75,25.07L392.63,52.93L439.5,123.87L484.86,192.27L531.73,253.07L577.09,278.4" fill="none" stroke="#1e2229" stroke-width="1.4" stroke-linecap="round" stroke-linejoin="round"/>
<g fill="#ffffff" stroke="#1e2229" stroke-width="1.12">
<circle cx="72.08" cy="268.27" r="3"/>
<circle cx="118.95" cy="235.33" r="3"/>
<circle cx="161.29" cy="177.07" r="3"/>
<circle cx="208.16" cy="131.47" r="3"/>
<circle cx="253.52" cy="75.73" r="3"/>
<circle cx="300.39" cy="42.8" r="3"/>
<circle cx="345.75" cy="25.07" r="3"/>
<circle cx="392.63" cy="52.93" r="3"/>
<circle cx="439.5" cy="123.87" r="3"/>
<circle cx="484.86" cy="192.27" r="3"/>
<circle cx="531.73" cy="253.07" r="3"/>
<circle cx="577.09" cy="278.4" r="3"/>
</g>
<path d="M72.08,90.93L118.95,111.2L161.29,126.4L208.16,156.8L253.52,187.2L300.39,207.47L345.75,217.6L392.63,202.4L439.5,172L484.86,131.47L531.73,101.07L577.09,75.73" fill="none" stroke="#56647a" stroke-width="1.4" stroke-linecap="round" stroke-linejoin="round" stroke-dasharray="6 3"/>
<g fill="#ffffff" stroke="#56647a" stroke-width="1.12">
<path d="M69.08,87.93h6v6h-6Z"/>
<path d="M115.95,108.2h6v6h-6Z"/>
<path d="M158.29,123.4h6v6h-6Z"/>
<path d="M205.16,153.8h6v6h-6Z"/>
<path d="M250.52,184.2h6v6h-6Z"/>
<path d="M297.39,204.47h6v6h-6Z"/>
<path d="M342.75,214.6h6v6h-6Z"/>
<path d="M389.63,199.4h6v6h-6Z"/>
<path d="M436.5,169h6v6h-6Z"/>
<path d="M481.86,128.47h6v6h-6Z"/>
<path d="M528.73,98.07h6v6h-6Z"/>
<path d="M574.09,72.73h6v6h-6Z"/>
</g>
<path d="M72.08,197.33L118.95,187.2L161.29,151.73L208.16,134L253.52,141.6L300.39,161.87L345.75,192.27L392.63,212.53L439.5,222.67L484.86,212.53L531.73,197.33L577.09,192.27" fill="none" stroke="#a3263b" stroke-width="1.4" stroke-linecap="round" stroke-linejoin="round" stroke-dasharray="1.5 3"/>
<g fill="#ffffff" stroke="#a3263b" stroke-width="1.12">
<path d="M72.08,193.73L75.38,199.73L68.78,199.73Z"/>
<path d="M118.95,183.6L122.25,189.6L115.65,189.6Z"/>
<path d="M161.29,148.13L164.59,154.13L157.99,154.13Z"/>
<path d="M208.16,130.4L211.46,136.4L204.86,136.4Z"/>
<path d="M253.52,138L256.82,144L250.22,144Z"/>
<path d="M300.39,158.27L303.69,164.27L297.09,164.27Z"/>
<path d="M345.75,188.67L349.05,194.67L342.45,194.67Z"/>
<path d="M392.63,208.93L395.93,214.93L389.33,214.93Z"/>
<path d="M439.5,219.07L442.8,225.07L436.2,225.07Z"/>
<path d="M484.86,208.93L488.16,214.93L481.56,214.93Z"/>
<path d="M531.73,193.73L535.03,199.73L528.43,199.73Z"/>
<path d="M577.09,188.67L580.39,194.67L573.79,194.67Z"/>
</g>
</g>
<line x1="72.08" y1="332" x2="577.09" y2="332" fill="none" stroke="#1e2229" stroke-width="0.9"/>
<line x1="64.08" y1="278.4" x2="64.08" y2="25.07" fill="none" stroke="#1e2229" stroke-width="0.9"/>
<line x1="72.08" y1="332" x2="72.08" y2="336" fill="none" stroke="#1e2229" stroke-width="0.9"/>
<text x="72.08" y="350.58" font-size="11" fill="#4b5260" text-anchor="middle">Jan 2025</text>
<line x1="161.29" y1="332" x2="161.29" y2="336" fill="none" stroke="#1e2229" stroke-width="0.9"/>
<text x="161.29" y="350.58" font-size="11" fill="#4b5260" text-anchor="middle">Mar</text>
<line x1="253.52" y1="332" x2="253.52" y2="336" fill="none" stroke="#1e2229" stroke-width="0.9"/>
<text x="253.52" y="350.58" font-size="11" fill="#4b5260" text-anchor="middle">May</text>
<line x1="345.75" y1="332" x2="345.75" y2="336" fill="none" stroke="#1e2229" stroke-width="0.9"/>
<text x="345.75" y="350.58" font-size="11" fill="#4b5260" text-anchor="middle">Jul</text>
<line x1="439.5" y1="332" x2="439.5" y2="336" fill="none" stroke="#1e2229" stroke-width="0.9"/>
<text x="439.5" y="350.58" font-size="11" fill="#4b5260" text-anchor="middle">Sep</text>
<line x1="531.73" y1="332" x2="531.73" y2="336" fill="none" stroke="#1e2229" stroke-width="0.9"/>
<text x="531.73" y="350.58" font-size="11" fill="#4b5260" text-anchor="middle">Nov</text>
<line x1="60.08" y1="278.4" x2="64.08" y2="278.4" fill="none" stroke="#1e2229" stroke-width="0.9"/>
<text x="53.08" y="282.25" font-size="11" fill="#4b5260" text-anchor="end">38</text>
<line x1="60.08" y1="222.67" x2="64.08" y2="222.67" fill="none" stroke="#1e2229" stroke-width="0.9"/>
<text x="53.08" y="226.52" font-size="11" fill="#4b5260" text-anchor="end">60</text>
<line x1="60.08" y1="172" x2="64.08" y2="172" fill="none" stroke="#1e2229" stroke-width="0.9"/>
<text x="53.08" y="175.85" font-size="11" fill="#4b5260" text-anchor="end">80</text>
<line x1="60.08" y1="121.33" x2="64.08" y2="121.33" fill="none" stroke="#1e2229" stroke-width="0.9"/>
<text x="53.08" y="125.18" font-size="11" fill="#4b5260" text-anchor="end">100</text>
<line x1="60.08" y1="70.67" x2="64.08" y2="70.67" fill="none" stroke="#1e2229" stroke-width="0.9"/>
<text x="53.08" y="74.52" font-size="11" fill="#4b5260" text-anchor="end">120</text>
<line x1="60.08" y1="25.07" x2="64.08" y2="25.07" fill="none" stroke="#1e2229" stroke-width="0.9"/>
<text x="53.08" y="28.92" font-size="11" fill="#4b5260" text-anchor="end">138</text>
<text x="22.6" y="175.85" font-size="11" fill="#4b5260" text-anchor="middle" font-style="italic" transform="rotate(-90 22.6 172)">GWh</text>
<text x="586.09" y="79.76" font-size="11.5" fill="#1e2229" font-style="italic">Wind</text>
<text x="586.09" y="196.29" font-size="11.5" fill="#1e2229" font-style="italic">Hydro</text>
<text x="586.09" y="282.42" font-size="11.5" fill="#1e2229" font-style="italic">Solar</text>
</svg>